<svg width="259" height="151" viewBox="0 0 259 151" fill="none" xmlns="http://www.w3.org/2000/svg">
<path fill-rule="evenodd" clip-rule="evenodd" d="M102.039 -30.9327C91.3094 -44.8393 93.885 -64.8107 107.792 -75.5401C121.698 -86.2696 141.67 -83.694 152.399 -69.7874L230.108 30.9331C240.838 44.8397 238.262 64.8112 224.356 75.5406C210.449 86.27 190.478 83.6944 179.748 69.7878L102.039 -30.9327ZM147.363 -65.9019L225.072 34.8186C233.656 45.9439 231.596 61.921 220.47 70.5046C209.345 79.0881 193.368 77.0276 184.784 65.9024L107.075 -34.8181C98.4913 -45.9434 100.552 -61.9206 111.677 -70.5041C122.802 -79.0876 138.78 -77.0272 147.363 -65.9019Z" fill="url(#paint0_radial_2303_4675)"/>
<path fill-rule="evenodd" clip-rule="evenodd" d="M96.1352 -90.6482C73.8846 -73.4811 69.7637 -41.5268 86.9308 -19.2763L164.64 81.4442C181.807 103.695 213.762 107.816 236.012 90.6487C258.263 73.4816 262.384 41.5273 245.217 19.2767L167.507 -81.4438C150.34 -103.694 118.386 -107.815 96.1352 -90.6482ZM240.181 23.1622L162.471 -77.5583C147.45 -97.0275 119.49 -100.633 100.021 -85.6122C80.5514 -70.591 76.9456 -42.631 91.9668 -23.1617L169.676 77.5588C184.697 97.028 212.657 100.634 232.127 85.6127C251.596 70.5915 255.202 42.6314 240.181 23.1622Z" fill="url(#paint1_radial_2303_4675)"/>
<path fill-rule="evenodd" clip-rule="evenodd" d="M71.8227 -7.61984C48.218 -38.2143 53.8843 -82.1515 84.4788 -105.756C115.073 -129.361 159.01 -123.695 182.615 -93.1002L260.325 7.6203C283.929 38.2148 278.263 82.152 247.669 105.757C217.074 129.361 173.137 123.695 149.532 93.1007L71.8227 -7.61984ZM177.579 -89.2147L255.289 11.5058C276.747 39.319 271.596 79.2619 243.783 100.721C215.97 122.18 176.027 117.028 154.568 89.2152L76.8587 -11.5053C55.3999 -39.3185 60.5511 -79.2614 88.3643 -100.72C116.177 -122.179 156.12 -117.028 177.579 -89.2147Z" fill="url(#paint2_radial_2303_4675)"/>
<path fill-rule="evenodd" clip-rule="evenodd" d="M72.8224 -120.864C33.8839 -90.8219 26.6722 -34.9019 56.7146 4.03657L134.424 104.757C164.466 143.696 220.386 150.907 259.325 120.865C298.263 90.8224 305.475 34.9024 275.433 -4.03611L197.723 -104.757C167.681 -143.695 111.761 -150.907 72.8224 -120.864ZM270.397 -0.150635L192.687 -100.871C164.791 -137.028 112.865 -143.725 76.7078 -115.828C40.5507 -87.9318 33.8541 -36.006 61.7506 0.151104L139.46 100.872C167.357 137.029 219.282 143.725 255.439 115.829C291.597 87.9323 298.293 36.0065 270.397 -0.150635Z" fill="url(#paint3_radial_2303_4675)"/>
<path fill-rule="evenodd" clip-rule="evenodd" d="M41.6065 15.693C5.12648 -31.5895 13.8835 -99.4924 61.166 -135.972C108.448 -172.452 176.351 -163.695 212.831 -116.413L290.541 -15.6925C327.021 31.5899 318.264 99.4929 270.981 135.973C223.699 172.453 155.796 163.696 119.316 116.413L41.6065 15.693ZM207.795 -112.528L285.505 -11.8071C319.839 32.6941 311.597 96.6027 267.096 130.937C222.595 165.271 158.686 157.029 124.352 112.528L46.6426 11.8075C12.3084 -32.6936 20.5503 -96.6022 65.0514 -130.936C109.553 -165.271 173.461 -157.029 207.795 -112.528Z" fill="url(#paint4_radial_2303_4675)"/>
<path fill-rule="evenodd" clip-rule="evenodd" d="M26.4985 27.3494C-16.4193 -28.277 -6.11683 -108.163 49.5096 -151.081C105.136 -193.998 185.022 -183.696 227.939 -128.069L305.649 -27.3489C348.567 28.2775 338.264 108.163 282.638 151.081C227.011 193.999 147.126 183.696 104.208 128.07L26.4985 27.3494ZM222.903 -124.184L300.613 -23.4635C341.385 29.3816 331.597 105.273 278.752 146.045C225.907 186.817 150.016 177.029 109.244 124.184L31.5345 23.4639C-9.23734 -29.3811 0.549954 -105.273 53.395 -146.044C106.24 -186.816 182.132 -177.029 222.903 -124.184Z" fill="url(#paint5_radial_2303_4675)"/>
<defs>
<radialGradient id="paint0_radial_2303_4675" cx="0" cy="0" r="1" gradientUnits="userSpaceOnUse" gradientTransform="translate(166.074 0.000225763) rotate(41.0386) scale(259.466 172.978)">
<stop stop-color="#8F6900"/>
<stop offset="0.615394" stop-color="#D4C59D" stop-opacity="0.384606"/>
<stop offset="1" stop-color="white" stop-opacity="0"/>
</radialGradient>
<radialGradient id="paint1_radial_2303_4675" cx="0" cy="0" r="1" gradientUnits="userSpaceOnUse" gradientTransform="translate(166.074 0.000225763) rotate(41.0386) scale(259.466 172.978)">
<stop stop-color="#8F6900"/>
<stop offset="0.615394" stop-color="#D4C59D" stop-opacity="0.384606"/>
<stop offset="1" stop-color="white" stop-opacity="0"/>
</radialGradient>
<radialGradient id="paint2_radial_2303_4675" cx="0" cy="0" r="1" gradientUnits="userSpaceOnUse" gradientTransform="translate(166.074 0.000225763) rotate(41.0386) scale(259.466 172.978)">
<stop stop-color="#8F6900"/>
<stop offset="0.615394" stop-color="#D4C59D" stop-opacity="0.384606"/>
<stop offset="1" stop-color="white" stop-opacity="0"/>
</radialGradient>
<radialGradient id="paint3_radial_2303_4675" cx="0" cy="0" r="1" gradientUnits="userSpaceOnUse" gradientTransform="translate(166.074 0.000225763) rotate(41.0386) scale(259.466 172.978)">
<stop stop-color="#8F6900"/>
<stop offset="0.615394" stop-color="#D4C59D" stop-opacity="0.384606"/>
<stop offset="1" stop-color="white" stop-opacity="0"/>
</radialGradient>
<radialGradient id="paint4_radial_2303_4675" cx="0" cy="0" r="1" gradientUnits="userSpaceOnUse" gradientTransform="translate(166.074 0.000225763) rotate(41.0386) scale(259.466 172.978)">
<stop stop-color="#8F6900"/>
<stop offset="0.615394" stop-color="#D4C59D" stop-opacity="0.384606"/>
<stop offset="1" stop-color="white" stop-opacity="0"/>
</radialGradient>
<radialGradient id="paint5_radial_2303_4675" cx="0" cy="0" r="1" gradientUnits="userSpaceOnUse" gradientTransform="translate(166.074 0.000225763) rotate(41.0386) scale(259.466 172.978)">
<stop stop-color="#8F6900"/>
<stop offset="0.615394" stop-color="#D4C59D" stop-opacity="0.384606"/>
<stop offset="1" stop-color="white" stop-opacity="0"/>
</radialGradient>
</defs>
</svg>
