<svg width="25" height="24" viewBox="0 0 25 24" fill="none" xmlns="http://www.w3.org/2000/svg">
<path d="M2.08203 21C2.08194 19.4603 2.54467 17.9533 3.41468 16.6598C4.28469 15.3664 5.52502 14.3414 6.98682 13.708C8.44862 13.0745 10.0698 12.8595 11.6557 13.0886C13.2417 13.3178 14.7251 13.9815 15.9279 15" stroke="#C7861E" stroke-width="1.5" stroke-linecap="round" stroke-linejoin="round"/>
<path d="M10.4154 13C13.2918 13 15.6237 10.7614 15.6237 8C15.6237 5.23858 13.2918 3 10.4154 3C7.53888 3 5.20703 5.23858 5.20703 8C5.20703 10.7614 7.53888 13 10.4154 13Z" stroke="#C7861E" stroke-width="1.5" stroke-linecap="round" stroke-linejoin="round"/>
<path d="M16.668 19L18.7513 21L22.918 17" stroke="#C7861E" stroke-width="1.5" stroke-linecap="round" stroke-linejoin="round"/>
</svg>
