<svg width="16" height="16" viewBox="0 0 16 16" fill="none" xmlns="http://www.w3.org/2000/svg">
<path fill-rule="evenodd" clip-rule="evenodd" d="M5.6167 1.27979L5.63811 1.27979L8.91432 1.27979L8.93572 1.27979C9.47762 1.27978 9.91469 1.27978 10.2686 1.30754C10.6331 1.33612 10.9532 1.39651 11.2493 1.54137C11.7197 1.77147 12.1022 2.13862 12.3418 2.59021C12.4927 2.87451 12.5556 3.1818 12.5854 3.53165C12.5875 3.55602 12.5894 3.5808 12.5912 3.606C12.785 3.61245 12.9537 3.62919 13.1077 3.67225C13.7096 3.84047 14.1803 4.29228 14.3555 4.87011C14.4291 5.11278 14.4289 5.39329 14.4286 5.75612L14.4286 5.8238L14.4286 6.40438L14.4286 6.47206C14.4289 6.83489 14.4291 7.1154 14.3555 7.35807C14.1803 7.9359 13.7096 8.38771 13.1077 8.55594C12.9341 8.60447 12.7418 8.61957 12.5159 8.62418C12.4827 8.8007 12.4376 8.9664 12.3759 9.12655C11.9876 10.1334 11.1607 10.9273 10.1118 11.3001C9.76664 11.4227 9.39667 11.4769 8.95346 11.5032C8.51771 11.529 7.97945 11.529 7.29296 11.529L7.27621 11.529L7.25947 11.529C6.57298 11.529 6.03471 11.529 5.59896 11.5032C5.15576 11.4769 4.78579 11.4227 4.44061 11.3001C3.39178 10.9273 2.56481 10.1334 2.17653 9.12655C2.04875 8.79518 1.9923 8.44 1.96497 8.01453C1.9381 7.5962 1.9381 7.07947 1.93811 6.42043L1.93811 6.40437L1.93811 4.83179L1.93811 4.81124L1.93811 4.81124C1.9381 4.29102 1.9381 3.87143 1.96702 3.53165C1.99679 3.1818 2.0597 2.87451 2.21059 2.59021C2.45027 2.13862 2.83273 1.77147 3.30313 1.54137C3.59928 1.39651 3.91937 1.33612 4.28379 1.30754C4.63773 1.27978 5.07481 1.27978 5.6167 1.27979ZM12.6036 7.6608C12.7175 7.6563 12.778 7.64825 12.8282 7.6342C13.1018 7.55774 13.3157 7.35237 13.3954 7.08972C13.4236 6.99675 13.4286 6.86742 13.4286 6.40438L13.4286 5.8238C13.4286 5.36076 13.4236 5.23143 13.3954 5.13846C13.3157 4.87581 13.1018 4.67044 12.8282 4.59398C12.7795 4.58037 12.7213 4.57239 12.6142 4.56781C12.6143 4.64639 12.6143 4.72749 12.6143 4.81119L12.6143 4.81123L12.6143 4.83179L12.6143 6.40437L12.6143 6.42044L12.6143 6.42046L12.6143 6.42048C12.6143 6.90504 12.6143 7.31266 12.6036 7.6608ZM4.36523 2.26435C4.06264 2.28808 3.8888 2.33233 3.75712 2.39674C3.47488 2.53479 3.24541 2.75509 3.1016 3.02604C3.0345 3.15245 2.98842 3.31934 2.96369 3.60982C2.9385 3.90591 2.93811 4.28622 2.93811 4.83179L2.93811 6.40437C2.93811 7.08292 2.93833 7.57013 2.96308 7.95545C2.98758 8.33702 3.03479 8.58698 3.11434 8.79326C3.40132 9.53748 4.01256 10.1243 4.78779 10.3998C5.00266 10.4761 5.26304 10.5215 5.6605 10.545C6.06188 10.5687 6.5694 10.569 7.27621 10.569C7.98303 10.569 8.49055 10.5687 8.89193 10.545C9.28939 10.5215 9.54977 10.4761 9.76464 10.3998C10.5399 10.1243 11.1511 9.53748 11.4381 8.79326C11.5176 8.58698 11.5648 8.33702 11.5894 7.95545C11.6141 7.57013 11.6143 7.08291 11.6143 6.40437L11.6143 4.83179C11.6143 4.28622 11.6139 3.90591 11.5887 3.60982C11.564 3.31934 11.5179 3.15245 11.4508 3.02604C11.307 2.75509 11.0776 2.53479 10.7953 2.39674C10.6636 2.33233 10.4898 2.28808 10.1872 2.26435C9.87878 2.24016 9.48262 2.23979 8.91432 2.23979L5.63811 2.23979C5.0698 2.23979 4.67365 2.24016 4.36523 2.26435ZM1.33334 13.3712C1.33334 13.1061 1.5572 12.8912 1.83334 12.8912L12.7191 12.8912C12.9952 12.8912 13.2191 13.1061 13.2191 13.3712C13.2191 13.6363 12.9952 13.8512 12.7191 13.8512L1.83334 13.8512C1.5572 13.8512 1.33334 13.6363 1.33334 13.3712Z" fill="black"/>
</svg>
