<svg width="12" height="12" viewBox="0 0 12 12" fill="none" xmlns="http://www.w3.org/2000/svg">
<path d="M7.7374 6.44482L8.4949 10.7078C8.50338 10.758 8.49634 10.8096 8.47471 10.8557C8.45308 10.9018 8.4179 10.9402 8.37386 10.9657C8.32983 10.9913 8.27905 11.0028 8.2283 10.9987C8.17756 10.9946 8.12927 10.9751 8.0899 10.9428L6.2999 9.59932C6.21349 9.53477 6.10851 9.49989 6.00065 9.49989C5.89278 9.49989 5.78781 9.53477 5.7014 9.59932L3.9084 10.9423C3.86906 10.9745 3.82083 10.994 3.77015 10.9981C3.71946 11.0022 3.66874 10.9907 3.62473 10.9653C3.58073 10.9398 3.54554 10.9015 3.52386 10.8555C3.50218 10.8095 3.49504 10.758 3.5034 10.7078L4.2604 6.44482" stroke="#595959" stroke-width="0.75" stroke-linecap="round" stroke-linejoin="round"/>
<path d="M6 7C7.65685 7 9 5.65685 9 4C9 2.34315 7.65685 1 6 1C4.34315 1 3 2.34315 3 4C3 5.65685 4.34315 7 6 7Z" stroke="#595959" stroke-width="0.75" stroke-linecap="round" stroke-linejoin="round"/>
</svg>
