<svg width="25" height="24" viewBox="0 0 25 24" fill="none" xmlns="http://www.w3.org/2000/svg">
<path d="M12.5001 13.3648C11.4159 13.366 10.3648 13.0065 9.52581 12.3473C8.68679 11.6882 8.11171 10.7702 7.8985 9.74979C7.8815 9.64229 7.88905 9.53254 7.92063 9.42813C7.9522 9.32372 8.00705 9.22715 8.08136 9.1451C8.15568 9.06306 8.24768 8.99751 8.35101 8.95299C8.45433 8.90847 8.5665 8.88606 8.67974 8.88729C8.86586 8.88469 9.04683 8.94597 9.19006 9.0601C9.33329 9.17422 9.42937 9.33369 9.461 9.50979C9.60813 10.184 9.99246 10.789 10.5494 11.2233C11.1064 11.6576 11.8021 11.8946 12.5196 11.8946C13.2371 11.8946 13.9328 11.6576 14.4898 11.2233C15.0467 10.789 15.431 10.184 15.5782 9.50979C15.6098 9.33369 15.7059 9.17422 15.8491 9.0601C15.9923 8.94597 16.1733 8.88469 16.3594 8.88729C16.4727 8.88606 16.5848 8.90847 16.6882 8.95299C16.7915 8.99751 16.8835 9.06306 16.9578 9.1451C17.0321 9.22715 17.087 9.32372 17.1186 9.42813C17.1501 9.53254 17.1577 9.64229 17.1407 9.74979C16.9262 10.7766 16.3454 11.6994 15.4983 12.3593C14.6512 13.0192 13.5909 13.3748 12.5001 13.3648Z" fill="#155DFC"/>
<path d="M19.4532 23.2502L5.54694 23.2502C5.22904 23.2506 4.91438 23.1889 4.62211 23.0688C4.32983 22.9488 4.06605 22.7729 3.84681 22.5519C3.62757 22.3309 3.45745 22.0694 3.3468 21.7833C3.23616 21.4972 3.18729 21.1925 3.20319 20.8877L3.836 7.95768C3.86219 7.378 4.12064 6.83044 4.55737 6.42935C4.9941 6.02826 5.57535 5.80463 6.17975 5.80518L18.8204 5.80518C19.4248 5.80463 20.006 6.02826 20.4428 6.42935C20.8795 6.83044 21.1379 7.378 21.1641 7.95768L21.7969 20.8877C21.8128 21.1925 21.764 21.4972 21.6533 21.7833C21.5427 22.0694 21.3726 22.3309 21.1533 22.5519C20.9341 22.7729 20.6703 22.9488 20.378 23.0688C20.0857 23.1889 19.7711 23.2506 19.4532 23.2502ZM6.17975 7.31268C5.97255 7.31268 5.77384 7.39169 5.62732 7.53235C5.48081 7.673 5.3985 7.86376 5.3985 8.06268L4.76569 20.9627C4.76039 21.0643 4.77668 21.1659 4.81356 21.2612C4.85044 21.3566 4.90715 21.4438 4.98023 21.5174C5.05331 21.5911 5.14124 21.6497 5.23866 21.6897C5.33609 21.7297 5.44097 21.7503 5.54694 21.7502H19.4532C19.5592 21.7503 19.664 21.7297 19.7615 21.6897C19.8589 21.6497 19.9468 21.5911 20.0199 21.5174C20.093 21.4438 20.1497 21.3566 20.1866 21.2612C20.2234 21.1659 20.2397 21.0643 20.2344 20.9627L19.6016 8.03268C19.6016 7.83376 19.5193 7.643 19.3728 7.50235C19.2263 7.36169 19.0276 7.28268 18.8204 7.28268L6.17975 7.31268Z" fill="#155DFC"/>
<path d="M17.1876 6.5625H15.6251V5.25C15.6251 4.45435 15.2958 3.69129 14.7098 3.12868C14.1237 2.56607 13.3289 2.25 12.5001 2.25C11.6713 2.25 10.8764 2.56607 10.2904 3.12868C9.7043 3.69129 9.37506 4.45435 9.37506 5.25V6.5625H7.81256V5.25C7.81256 4.05653 8.30642 2.91193 9.1855 2.06802C10.0646 1.22411 11.2569 0.75 12.5001 0.75C13.7433 0.75 14.9355 1.22411 15.8146 2.06802C16.6937 2.91193 17.1876 4.05653 17.1876 5.25V6.5625Z" fill="#155DFC"/>
</svg>
