<svg width="20" height="22" viewBox="0 0 20 22" fill="none" xmlns="http://www.w3.org/2000/svg">
<path fill-rule="evenodd" clip-rule="evenodd" d="M6.50005 0.75C6.50005 0.335786 6.16426 0 5.75005 0C5.33584 0 5.00005 0.335786 5.00005 0.75V2.00912C4.28073 2.02754 3.72879 2.08259 3.24054 2.24624C1.82817 2.71962 0.719665 3.82812 0.246287 5.24049C-0.000525758 5.97688 -0.000311533 6.85812 2.42795e-05 8.23999L4.95519e-05 8.39706V12.75L4.91943e-05 12.8064C3.33394e-05 14.6442 2.06977e-05 16.0998 0.153184 17.239C0.310812 18.4114 0.642929 19.3604 1.39129 20.1088C2.13966 20.8571 3.0886 21.1892 4.26103 21.3469C5.40022 21.5 6.85582 21.5 8.69353 21.5H8.69357H8.75005H10.75H10.8065H10.8066C12.6443 21.5 14.0999 21.5 15.2391 21.3469C16.4115 21.1892 17.3604 20.8571 18.1088 20.1088C18.8572 19.3604 19.1893 18.4114 19.3469 17.239C19.5001 16.0998 19.5001 14.6442 19.5 12.8065V12.8064V12.75V10.75V10.6936V10.6935C19.5001 8.8558 19.5001 7.40018 19.3469 6.26098C19.1893 5.08856 18.8572 4.13961 18.1088 3.39124C17.3604 2.64288 16.4115 2.31076 15.2391 2.15313C15.0061 2.12182 14.76 2.09691 14.5 2.07709V0.75C14.5 0.335786 14.1643 0 13.75 0C13.3358 0 13 0.335786 13 0.75V2.01272C12.338 1.99999 11.6086 1.99999 10.8065 2L10.75 2H6.50005V0.75ZM13 3.75V3.51309C12.3473 3.50032 11.6041 3.5 10.75 3.5H6.50005V3.75C6.50005 4.16421 6.16426 4.5 5.75005 4.5C5.33584 4.5 5.00005 4.16421 5.00005 3.75V3.51077C4.3736 3.52713 4.01733 3.56789 3.71723 3.66848C2.75087 3.99237 1.99242 4.75082 1.66853 5.71718C1.50985 6.19061 1.50005 6.80384 1.50005 8.39706V12.75C1.50005 14.6568 1.50164 16.0115 1.63981 17.0392C1.77507 18.0452 2.02874 18.6249 2.45195 19.0481C2.87516 19.4713 3.45481 19.725 4.4609 19.8602C5.48856 19.9984 6.84323 20 8.75005 20H10.75C12.6569 20 14.0115 19.9984 15.0392 19.8602C16.0453 19.725 16.6249 19.4713 17.0481 19.0481C17.4714 18.6249 17.725 18.0452 17.8603 17.0392C17.9985 16.0115 18 14.6568 18 12.75V10.75C18 8.84318 17.9985 7.48851 17.8603 6.46085C17.725 5.45476 17.4714 4.87511 17.0481 4.4519C16.6249 4.02869 16.0453 3.77502 15.0392 3.63976C14.8688 3.61685 14.6894 3.5977 14.5 3.58168V3.75C14.5 4.16421 14.1643 4.5 13.75 4.5C13.3358 4.5 13 4.16421 13 3.75ZM4.75006 7C4.33585 7 4.00006 7.33579 4.00006 7.75C4.00006 8.16421 4.33585 8.5 4.75006 8.5H14.7501C15.1643 8.5 15.5001 8.16421 15.5001 7.75C15.5001 7.33579 15.1643 7 14.7501 7H4.75006ZM6.75006 11.75C6.75006 12.3023 6.30235 12.75 5.75006 12.75C5.19778 12.75 4.75006 12.3023 4.75006 11.75C4.75006 11.1977 5.19778 10.75 5.75006 10.75C6.30235 10.75 6.75006 11.1977 6.75006 11.75ZM5.75006 16.75C6.30235 16.75 6.75006 16.3023 6.75006 15.75C6.75006 15.1977 6.30235 14.75 5.75006 14.75C5.19778 14.75 4.75006 15.1977 4.75006 15.75C4.75006 16.3023 5.19778 16.75 5.75006 16.75ZM10.7501 15.75C10.7501 16.3023 10.3023 16.75 9.75006 16.75C9.19778 16.75 8.75006 16.3023 8.75006 15.75C8.75006 15.1977 9.19778 14.75 9.75006 14.75C10.3023 14.75 10.7501 15.1977 10.7501 15.75ZM13.7501 16.75C14.3023 16.75 14.7501 16.3023 14.7501 15.75C14.7501 15.1977 14.3023 14.75 13.7501 14.75C13.1978 14.75 12.7501 15.1977 12.7501 15.75C12.7501 16.3023 13.1978 16.75 13.7501 16.75ZM10.7501 11.75C10.7501 12.3023 10.3023 12.75 9.75006 12.75C9.19778 12.75 8.75006 12.3023 8.75006 11.75C8.75006 11.1977 9.19778 10.75 9.75006 10.75C10.3023 10.75 10.7501 11.1977 10.7501 11.75ZM13.7501 12.75C14.3023 12.75 14.7501 12.3023 14.7501 11.75C14.7501 11.1977 14.3023 10.75 13.7501 10.75C13.1978 10.75 12.7501 11.1977 12.7501 11.75C12.7501 12.3023 13.1978 12.75 13.7501 12.75Z" fill="#20222F"/>
</svg>
