<svg width="25" height="24" viewBox="0 0 25 24" fill="none" xmlns="http://www.w3.org/2000/svg">
<path fill-rule="evenodd" clip-rule="evenodd" d="M8.77611 2L8.80955 2L13.9286 2L13.9621 2C14.8088 1.99999 15.4917 1.99999 16.0447 2.04337C16.6142 2.08803 17.1143 2.18239 17.577 2.40873C18.312 2.76825 18.9096 3.34193 19.2841 4.04754C19.5199 4.49176 19.6182 4.9719 19.6647 5.51853C19.668 5.55661 19.671 5.59533 19.6738 5.6347C19.9766 5.64478 20.2402 5.67095 20.4809 5.73822C21.4213 6.00107 22.1567 6.70703 22.4305 7.60988C22.5455 7.98906 22.5452 8.42736 22.5448 8.99428L22.5447 9.10003L22.5447 10.0072L22.5448 10.1129C22.5452 10.6798 22.5455 11.1181 22.4305 11.4973C22.1567 12.4002 21.4213 13.1061 20.4809 13.369C20.2095 13.4448 19.9091 13.4684 19.5562 13.4756C19.5043 13.7514 19.4338 14.0103 19.3373 14.2606C18.7307 15.8338 17.4385 17.0743 15.7997 17.6567C15.2604 17.8484 14.6823 17.933 13.9898 17.974C13.3089 18.0143 12.4679 18.0143 11.3953 18.0143L11.3691 18.0143L11.3429 18.0143C10.2703 18.0143 9.42925 18.0143 8.74839 17.974C8.05589 17.933 7.4778 17.8484 6.93847 17.6567C5.29966 17.0743 4.00753 15.8338 3.40084 14.2606C3.20119 13.7428 3.11297 13.1878 3.07028 12.523C3.0283 11.8694 3.0283 11.062 3.0283 10.0323L3.0283 10.0072L3.0283 7.55001L3.0283 7.5179L3.0283 7.5179C3.02829 6.70506 3.02829 6.04944 3.07347 5.51854C3.11999 4.9719 3.21829 4.49176 3.45406 4.04754C3.82856 3.34193 4.42614 2.76825 5.16115 2.40873C5.62388 2.18239 6.12403 2.08803 6.69344 2.04337C7.24647 1.99999 7.9294 1.99999 8.77611 2ZM19.6932 11.9703C19.8712 11.9633 19.9656 11.9507 20.0441 11.9288C20.4716 11.8093 20.8058 11.4884 20.9303 11.078C20.9744 10.9328 20.9822 10.7307 20.9822 10.0072L20.9822 9.10003C20.9822 8.37652 20.9744 8.17445 20.9303 8.02918C20.8058 7.61879 20.4716 7.2979 20.0441 7.17842C19.9681 7.15717 19.8771 7.1447 19.7097 7.13754C19.7099 7.26032 19.7099 7.38703 19.7099 7.51782L19.7099 7.51788L19.7099 7.55L19.7099 10.0072L19.7099 10.0323L19.7099 10.0323L19.7099 10.0323C19.7099 10.7895 19.7099 11.4264 19.6932 11.9703ZM6.82068 3.53838C6.34789 3.57547 6.07626 3.6446 5.87051 3.74524C5.42951 3.96095 5.07096 4.30516 4.84625 4.72852C4.74142 4.92604 4.66941 5.18681 4.63078 5.64068C4.59141 6.10331 4.5908 6.69755 4.5908 7.55001L4.5908 10.0072C4.5908 11.0674 4.59115 11.8287 4.62981 12.4307C4.66811 13.0269 4.74187 13.4175 4.86616 13.7398C5.31458 14.9026 6.26963 15.8195 7.48093 16.25C7.81667 16.3693 8.22351 16.4401 8.84455 16.4769C9.4717 16.514 10.2647 16.5143 11.3691 16.5143C12.4735 16.5143 13.2665 16.514 13.8936 16.4769C14.5147 16.4401 14.9215 16.3693 15.2573 16.25C16.4686 15.8195 17.4236 14.9026 17.872 13.7398C17.9963 13.4175 18.0701 13.0269 18.1084 12.4307C18.147 11.8287 18.1474 11.0674 18.1474 10.0072L18.1474 7.55C18.1474 6.69755 18.1468 6.10331 18.1074 5.64068C18.0688 5.18681 17.9968 4.92604 17.8919 4.72852C17.6672 4.30516 17.3087 3.96095 16.8677 3.74524C16.6619 3.6446 16.3903 3.57547 15.9175 3.53838C15.4356 3.50059 14.8166 3.5 13.9286 3.5L8.80955 3.5C7.92158 3.5 7.30258 3.50059 6.82068 3.53838ZM2.08336 20.8929C2.08336 20.4787 2.43313 20.1429 2.86461 20.1429L19.8736 20.1429C20.3051 20.1429 20.6548 20.4787 20.6548 20.8929C20.6548 21.3071 20.3051 21.6429 19.8736 21.6429L2.86461 21.6429C2.43313 21.6429 2.08336 21.3071 2.08336 20.8929Z" fill="#C7861E"/>
</svg>
