<svg width="15" height="15" viewBox="0 0 15 15" fill="none" xmlns="http://www.w3.org/2000/svg">
<path fill-rule="evenodd" clip-rule="evenodd" d="M6.11716 2.14843e-06L6.14364 4.2942e-06H8.48136L8.50784 2.14843e-06C8.74589 -2.70429e-05 8.96942 -5.4446e-05 9.15673 0.0213308C9.36535 0.045148 9.58467 0.100211 9.78936 0.247749C9.99406 0.395287 10.1157 0.585937 10.2042 0.776314C10.2837 0.947247 10.3544 1.15931 10.4296 1.38514L10.4296 1.38516L10.4297 1.38518L10.438 1.41028L10.7179 2.25H12.5625H14.0625C14.3732 2.25 14.625 2.50184 14.625 2.8125C14.625 3.12316 14.3732 3.375 14.0625 3.375H13.0887L12.6538 9.89926L12.6512 9.93873C12.587 10.9008 12.5352 11.6779 12.4138 12.2877C12.2875 12.9217 12.0727 13.4512 11.629 13.8663C11.1853 14.2814 10.6426 14.4605 10.0016 14.5444C9.38509 14.625 8.60625 14.625 7.64206 14.625H7.60251H7.02249H6.98294C6.01875 14.625 5.23991 14.625 4.62338 14.5444C3.9824 14.4605 3.43974 14.2814 2.99604 13.8663C2.55234 13.4512 2.33753 12.9217 2.21123 12.2877C2.08975 11.6779 2.03795 10.9008 1.97383 9.93872L1.9712 9.89926L1.53625 3.375H0.5625C0.25184 3.375 0 3.12316 0 2.8125C0 2.50184 0.25184 2.25 0.5625 2.25H2.0625H3.90707L4.18698 1.41028L4.19535 1.38516L4.19535 1.38515C4.2706 1.15931 4.34126 0.94725 4.42078 0.776314C4.50935 0.585937 4.63094 0.395287 4.83564 0.247749C5.04033 0.100211 5.25965 0.045148 5.46827 0.0213308C5.65558 -5.4446e-05 5.87911 -2.70429e-05 6.11716 2.14843e-06ZM5.09293 2.25H9.53207L9.37075 1.76604C9.28415 1.50624 9.23333 1.35647 9.18419 1.25084C9.16202 1.20318 9.14679 1.17961 9.13863 1.16868C9.13486 1.16362 9.13274 1.16147 9.13228 1.16101L9.13156 1.1604L9.13075 1.15991C9.13017 1.15962 9.12746 1.15829 9.12147 1.15631C9.10852 1.15203 9.08135 1.14503 9.02912 1.13907C8.91337 1.12585 8.75521 1.125 8.48136 1.125H6.14364C5.86979 1.125 5.71163 1.12585 5.59588 1.13907C5.54365 1.14503 5.51648 1.15203 5.50353 1.15631C5.49754 1.15829 5.49482 1.15962 5.49425 1.15991L5.49344 1.1604L5.49272 1.16101C5.49226 1.16147 5.49014 1.16362 5.48637 1.16868C5.47821 1.17961 5.46298 1.20318 5.44081 1.25084C5.39167 1.35647 5.34085 1.50624 5.25425 1.76604L5.09293 2.25ZM2.66375 3.375L3.09371 9.82442C3.1611 10.8353 3.20912 11.5387 3.31455 12.0679C3.41681 12.5812 3.55956 12.8529 3.76462 13.0448C3.96968 13.2366 4.2503 13.361 4.7693 13.4289C5.30435 13.4989 6.00936 13.5 7.02249 13.5H7.60251C8.61564 13.5 9.32065 13.4989 9.8557 13.4289C10.3747 13.361 10.6553 13.2366 10.8604 13.0448C11.0654 12.8529 11.2082 12.5812 11.3105 12.0679C11.4159 11.5387 11.4639 10.8353 11.5313 9.82442L11.9613 3.375H10.3125H4.3125H2.66375ZM5.8125 5.25C6.12316 5.25 6.375 5.50184 6.375 5.8125V11.0625C6.375 11.3732 6.12316 11.625 5.8125 11.625C5.50184 11.625 5.25 11.3732 5.25 11.0625V5.8125C5.25 5.50184 5.50184 5.25 5.8125 5.25ZM9.375 5.8125C9.375 5.50184 9.12316 5.25 8.8125 5.25C8.50184 5.25 8.25 5.50184 8.25 5.8125V8.8125C8.25 9.12316 8.50184 9.375 8.8125 9.375C9.12316 9.375 9.375 9.12316 9.375 8.8125V5.8125Z" fill="#C90000"/>
</svg>
