<svg width="15" height="15" viewBox="0 0 15 15" fill="none" xmlns="http://www.w3.org/2000/svg">
<path fill-rule="evenodd" clip-rule="evenodd" d="M13.4134 1.39162C13.0498 1.06117 12.4947 1.06117 12.1311 1.39162C12.1169 1.40459 12.0982 1.42297 12.0328 1.48837L11.7987 1.72247C11.7802 2.54308 12.4569 3.21976 13.2775 3.20125L13.5116 2.96716C13.577 2.90176 13.5954 2.88314 13.6084 2.86888C13.9388 2.50534 13.9388 1.95018 13.6084 1.58664C13.5954 1.57238 13.577 1.55377 13.5116 1.48837C13.4462 1.42297 13.4276 1.40459 13.4134 1.39162ZM12.3084 4.17037C11.6333 3.9068 11.0932 3.36669 10.8296 2.69158L9.03374 4.48748C8.41857 5.10265 8.18937 5.33858 8.03218 5.6162C7.87499 5.89383 7.7906 6.21175 7.5796 7.05576L7.45805 7.54195L7.94425 7.4204C8.78825 7.2094 9.10618 7.12501 9.3838 6.96782C9.66142 6.81063 9.89736 6.58143 10.5125 5.96626L12.3084 4.17037ZM11.3618 0.545245C12.1616 -0.181748 13.3829 -0.181749 14.1827 0.545245C14.2199 0.579073 14.2594 0.618613 14.3108 0.66995L14.3108 0.669964L14.3108 0.669987L14.3204 0.679592L14.33 0.689198L14.3301 0.689252C14.3814 0.740567 14.4209 0.780093 14.4548 0.817303C15.1817 1.61709 15.1817 2.83843 14.4548 3.63822C14.4209 3.67545 14.3814 3.71499 14.33 3.76633L14.3204 3.77593L11.3213 6.77504L11.2652 6.83112C10.7253 7.37125 10.3766 7.72009 9.94734 7.96314C9.51806 8.20619 9.03954 8.32572 8.29861 8.5108L8.29859 8.51081L8.29859 8.51081L8.22165 8.53003L6.81077 8.88275C6.61588 8.93147 6.40972 8.87437 6.26768 8.73232C6.12563 8.59028 6.06853 8.38412 6.11725 8.18923L6.46997 6.77835L6.48919 6.70141C6.67427 5.96047 6.79381 5.48194 7.03686 5.05266C7.27992 4.62338 7.62875 4.27468 8.16889 3.73476L8.22496 3.6787L11.2241 0.679591L11.2337 0.669998C11.285 0.618637 11.3246 0.579084 11.3618 0.545245ZM6.62905 0.130828L6.67207 0.130828H7.43459C7.75043 0.130828 8.00648 0.386873 8.00648 0.702719C8.00648 1.01857 7.75043 1.27461 7.43459 1.27461H6.67207C5.21807 1.27461 4.18511 1.27583 3.40149 1.38118C2.63433 1.48432 2.19234 1.67775 1.86963 2.00046C1.54692 2.32316 1.3535 2.76516 1.25035 3.53232C1.145 4.31594 1.14378 5.3489 1.14378 6.80289V8.32794C1.14378 9.78193 1.145 10.8149 1.25035 11.5985C1.3535 12.3657 1.54692 12.8077 1.86963 13.1304C2.19234 13.4531 2.63433 13.6465 3.40149 13.7497C4.18511 13.855 5.21807 13.8562 6.67207 13.8562H8.19711C9.6511 13.8562 10.6841 13.855 11.4677 13.7497C12.2348 13.6465 12.6768 13.4531 12.9995 13.1304C13.3223 12.8077 13.5157 12.3657 13.6188 11.5985C13.7242 10.8149 13.7254 9.78193 13.7254 8.32794V7.56541C13.7254 7.24957 13.9814 6.99352 14.2973 6.99352C14.6131 6.99352 14.8692 7.24957 14.8692 7.56541V8.32794V8.37095V8.37099C14.8692 9.7723 14.8692 10.8822 14.7524 11.7509C14.6322 12.6449 14.379 13.3685 13.8083 13.9391C13.2377 14.5098 12.5141 14.763 11.6201 14.8832C10.7514 15 9.64148 15 8.24016 15H8.24012H8.19711H6.67207H6.62905H6.62902C5.2277 15 4.11776 15 3.24909 14.8832C2.35509 14.763 1.6315 14.5098 1.06085 13.9391C0.490211 13.3685 0.236965 12.6449 0.11677 11.7509C-1.98957e-05 10.8822 -1.10068e-05 9.7723 2.19453e-07 8.37098V8.37095V8.32794V6.80289V6.75987V6.75985C-1.10068e-05 5.35853 -1.9907e-05 4.24859 0.11677 3.37992C0.236965 2.48592 0.490211 1.76232 1.06085 1.19168C1.6315 0.621038 2.35509 0.367791 3.24909 0.247597C4.11776 0.130806 5.22772 0.130816 6.62905 0.130828Z" fill="#20222F"/>
</svg>
