<svg width="16" height="20" viewBox="0 0 16 20" fill="none" xmlns="http://www.w3.org/2000/svg">
<path fill-rule="evenodd" clip-rule="evenodd" d="M9 1.50343C8.79059 1.50073 8.54835 1.50009 8.26472 1.50009H6.75C5.31459 1.50009 4.31347 1.50168 3.55812 1.60324C2.82435 1.70189 2.43577 1.88233 2.15901 2.1591C1.88225 2.43586 1.7018 2.82443 1.60315 3.55821C1.50159 4.31356 1.5 5.31467 1.5 6.75009V12.7501C1.5 14.1855 1.50159 15.1866 1.60315 15.942C1.7018 16.6757 1.88225 17.0643 2.15901 17.3411C2.43577 17.6178 2.82435 17.7983 3.55812 17.8969C4.31347 17.9985 5.31458 18.0001 6.75 18.0001H8.75C10.1854 18.0001 11.1865 17.9985 11.9419 17.8969C12.6757 17.7983 13.0642 17.6178 13.341 17.3411C13.6178 17.0643 13.7982 16.6757 13.8969 15.942C13.9984 15.1866 14 14.1855 14 12.7501V7.23537C14 6.95178 13.9994 6.70956 13.9967 6.50017H13.75L13.698 6.50017C12.7995 6.5002 12.0503 6.50023 11.4555 6.42026C10.8277 6.33586 10.2609 6.15019 9.80546 5.69472C9.34999 5.23925 9.16432 4.67245 9.07991 4.04465C8.99994 3.44987 8.99997 2.70065 9 1.80217L9 1.75017V1.50343ZM10.5 1.73297V1.75017C10.5 2.71418 10.5016 3.36174 10.5665 3.84478C10.6286 4.30624 10.7358 4.50374 10.8661 4.63406C10.9964 4.76437 11.1939 4.87159 11.6554 4.93364C12.1384 4.99858 12.786 5.00017 13.75 5.00017H13.7672C13.5931 4.66852 13.2668 4.32753 12.4623 3.52306L11.977 3.03778C11.1726 2.23338 10.8316 1.90703 10.5 1.73297ZM8.40732 4.33585e-05C9.4951 -0.000475917 10.251 -0.000836819 10.9424 0.28554C11.6338 0.571918 12.1681 1.10671 12.9369 1.87625L13.0377 1.97712L13.523 2.4624L13.6238 2.5632C14.3934 3.33201 14.9282 3.86629 15.2145 4.55767C15.5009 5.24904 15.5006 6.00499 15.5 7.09276V7.09277L15.5 7.23537V12.7501V12.805V12.805V12.805C15.5 14.1726 15.5 15.2749 15.3835 16.1418C15.2625 17.0419 15.0036 17.7998 14.4017 18.4017C13.7997 19.0037 13.0419 19.2626 12.1418 19.3836C11.2748 19.5001 10.1725 19.5001 8.80487 19.5001H8.75H6.75H6.69513C5.32754 19.5001 4.22522 19.5001 3.35825 19.3836C2.45814 19.2626 1.70027 19.0037 1.09835 18.4017C0.496434 17.7998 0.23754 17.0419 0.116524 16.1418C-3.68804e-05 15.2749 -2.02485e-05 14.1726 5.53535e-07 12.805V12.7501V6.75009V6.69521C-2.02485e-05 5.32762 -3.68804e-05 4.2253 0.116524 3.35834C0.23754 2.45823 0.496434 1.70035 1.09835 1.09844C1.70027 0.496521 2.45814 0.237628 3.35825 0.116611C4.22522 5.06267e-05 5.32754 6.726e-05 6.69513 8.78832e-05L6.75 8.84793e-05H8.26472L8.40732 4.33585e-05ZM7.21966 8.2199C7.51256 7.927 7.98743 7.927 8.28032 8.2199L10.7803 10.7199C11.0732 11.0128 11.0732 11.4877 10.7803 11.7806C10.4874 12.0735 10.0126 12.0735 9.71966 11.7806L8.5 10.5609V14.7502C8.5 15.1644 8.16421 15.5002 7.74999 15.5002C7.33578 15.5002 6.99999 15.1644 6.99999 14.7502V10.5609L5.78032 11.7806C5.48743 12.0735 5.01256 12.0735 4.71966 11.7806C4.42677 11.4877 4.42677 11.0128 4.71966 10.7199L7.21966 8.2199Z" fill="#20222F"/>
</svg>
