<svg width="14" height="13" viewBox="0 0 14 13" fill="none" xmlns="http://www.w3.org/2000/svg">
<path d="M9.93474 12.1227C10.1115 12.1227 10.2811 12.0553 10.4061 11.9352C10.5312 11.8152 10.6014 11.6524 10.6014 11.4827V8.05869C10.6014 7.76621 10.8121 7.51853 11.0861 7.39245C11.6534 7.13265 12.1069 6.68881 12.3665 6.13926C12.6261 5.58972 12.6752 4.9698 12.505 4.38891C12.3349 3.80802 11.9564 3.3035 11.4365 2.96439C10.9166 2.62528 10.2886 2.47338 9.6634 2.53549C9.40591 1.96091 8.97865 1.47136 8.43445 1.12739C7.89025 0.783417 7.25297 0.600098 6.6014 0.600098C5.94984 0.600098 5.31256 0.783417 4.76836 1.12739C4.22415 1.47136 3.7969 1.96091 3.5394 2.53549C2.91446 2.47381 2.2869 2.62593 1.76736 2.96502C1.24782 3.30412 0.869678 3.80841 0.699594 4.389C0.529511 4.96959 0.578411 5.58918 0.837674 6.13854C1.09694 6.68789 1.54991 7.13174 2.11674 7.39181C2.39074 7.51853 2.6014 7.76621 2.6014 8.05805L2.6014 11.4827C2.6014 11.6524 2.67164 11.8152 2.79667 11.9352C2.92169 12.0553 3.09126 12.1227 3.26807 12.1227L9.93474 12.1227Z" stroke="black" stroke-width="1.2" stroke-linecap="round" stroke-linejoin="round"/>
</svg>
