<svg width="25" height="24" viewBox="0 0 25 24" fill="none" xmlns="http://www.w3.org/2000/svg">
<path d="M17.7083 21.0002C17.9846 21.0002 18.2496 20.8948 18.4449 20.7073C18.6403 20.5197 18.75 20.2654 18.75 20.0002V14.6502C18.75 14.1932 19.0792 13.8062 19.5073 13.6092C20.3937 13.2032 21.1023 12.5097 21.5079 11.651C21.9136 10.7924 21.9903 9.82375 21.7244 8.91611C21.4585 8.00847 20.8672 7.22016 20.0549 6.6903C19.2425 6.16044 18.2613 5.92309 17.2844 6.02015C16.882 5.12236 16.2145 4.35745 15.3641 3.81999C14.5138 3.28253 13.5181 2.99609 12.5 2.99609C11.4819 2.99609 10.4862 3.28253 9.63586 3.81999C8.78555 4.35745 8.11796 5.12236 7.71563 6.02015C6.73915 5.92377 5.75858 6.16145 4.94681 6.69129C4.13503 7.22112 3.54418 8.00909 3.27842 8.91625C3.01267 9.82342 3.08908 10.7915 3.49417 11.6499C3.89927 12.5083 4.60705 13.2018 5.49271 13.6082C5.92083 13.8062 6.25 14.1932 6.25 14.6492V20.0002C6.25 20.2654 6.35975 20.5197 6.5551 20.7073C6.75045 20.8948 7.0154 21.0002 7.29167 21.0002L17.7083 21.0002Z" stroke="#059B5A" stroke-width="1.2" stroke-linecap="round" stroke-linejoin="round"/>
<path d="M6.25 17H18.75" stroke="#059B5A" stroke-width="1.2" stroke-linecap="round" stroke-linejoin="round"/>
</svg>
