<svg width="12" height="13" viewBox="0 0 12 13" fill="none" xmlns="http://www.w3.org/2000/svg">
<path fill-rule="evenodd" clip-rule="evenodd" d="M0.971429 5.54566C0.971429 3.97678 1.56714 2.83592 2.43075 2.08349C3.30263 1.32385 4.47736 0.93485 5.66667 0.934852C6.85597 0.934855 8.0307 1.32387 8.90258 2.0835C9.76619 2.83593 10.3619 3.9768 10.3619 5.54566C10.3619 7.58607 9.08917 9.36964 7.78326 10.6541C7.31215 11.1175 7.01028 11.4108 6.70163 11.6011C6.42231 11.7734 6.12824 11.8651 5.6668 11.8651C5.20537 11.8652 4.9113 11.7735 4.63197 11.6012C4.32331 11.4108 4.02143 11.1176 3.55029 10.6542C2.24428 9.3697 0.971429 7.5861 0.971429 5.54566ZM11.3333 5.54566C11.3333 3.72905 10.6338 2.33079 9.55456 1.39048C8.48358 0.457372 7.06783 3.23187e-06 5.66667 0C4.2655 -3.52901e-06 2.84975 0.457358 1.77877 1.39047C0.699523 2.33078 0 3.72903 0 5.54566C0 7.95471 1.48966 9.96421 2.85595 11.308L2.88638 11.338L2.88639 11.338C3.31851 11.7631 3.69568 12.1341 4.10781 12.3883C4.55891 12.6665 5.03865 12.8 5.66682 12.8C6.29499 12.8 6.77473 12.6664 7.22582 12.3882C7.63793 12.134 8.01509 11.763 8.4472 11.3379L8.44721 11.3379L8.47763 11.3079C9.84382 9.96412 11.3333 7.95466 11.3333 5.54566ZM4.20952 5.45333C4.20952 4.67887 4.86191 4.05105 5.66667 4.05105C6.47142 4.05105 7.12381 4.67887 7.12381 5.45333C7.12381 6.22778 6.47142 6.8556 5.66667 6.8556C4.86191 6.8556 4.20952 6.22778 4.20952 5.45333ZM5.66667 3.11619C4.3254 3.11619 3.2381 4.16256 3.2381 5.45333C3.2381 6.74409 4.3254 7.79046 5.66667 7.79046C7.00793 7.79046 8.09524 6.74409 8.09524 5.45333C8.09524 4.16256 7.00793 3.11619 5.66667 3.11619Z" fill="#20222F"/>
</svg>
