<svg width="13" height="14" viewBox="0 0 13 14" fill="none" xmlns="http://www.w3.org/2000/svg">
<path fill-rule="evenodd" clip-rule="evenodd" d="M3.83333 1.52086e-07L3.80947 1.52086e-07C3.20665 -5.6844e-06 2.72046 -1.04141e-05 2.32827 0.0341137C1.92404 0.0692849 1.57084 0.143715 1.25 0.321539C0.869954 0.532183 0.554359 0.835154 0.334938 1.2C0.149705 1.508 0.0721731 1.84707 0.0355363 2.23513C-8.88606e-06 2.61163 -4.84855e-06 3.07836 1.58443e-07 3.65705L1.58443e-07 3.65709L1.58443e-07 3.68L1.58443e-07 10.08L1.58443e-07 10.1029C-5.92123e-06 10.6816 -1.08878e-05 11.1484 0.0355349 11.5249C0.0721716 11.9129 0.149703 12.252 0.334936 12.56C0.554357 12.9248 0.869952 13.2278 1.25 13.4385C1.57083 13.6163 1.92403 13.6907 2.32827 13.7259C2.72046 13.76 3.20664 13.76 3.80946 13.76H3.83333H3.85721C4.46003 13.76 4.94621 13.76 5.3384 13.7259C5.74263 13.6907 6.09583 13.6163 6.41667 13.4385C6.79671 13.2278 7.11231 12.9248 7.33173 12.56C7.51696 12.252 7.5945 11.9129 7.63113 11.5249C7.66668 11.1484 7.66667 10.6816 7.66667 10.1029V10.08L7.66667 9.44C7.66667 9.1749 7.44281 8.96 7.16667 8.96C6.89052 8.96 6.66667 9.1749 6.66667 9.44L6.66667 10.08C6.66667 10.687 6.66619 11.1101 6.63521 11.4382C6.60486 11.7597 6.54842 11.9425 6.4657 12.08C6.33405 12.2989 6.1447 12.4807 5.91667 12.6071C5.7734 12.6865 5.58301 12.7407 5.24814 12.7698C4.90639 12.7995 4.46561 12.8 3.83333 12.8C3.20105 12.8 2.76028 12.7995 2.41853 12.7698C2.08366 12.7407 1.89327 12.6865 1.75 12.6071C1.52197 12.4807 1.33261 12.2989 1.20096 12.08C1.11825 11.9425 1.0618 11.7597 1.03145 11.4382C1.00048 11.1101 1 10.687 1 10.08L1 3.68C1 3.07301 1.00048 2.64986 1.03145 2.32179C1.0618 2.00031 1.11825 1.81754 1.20096 1.68C1.33262 1.46109 1.52197 1.27931 1.75 1.15292C1.89327 1.07352 2.08366 1.01933 2.41853 0.990195C2.76028 0.96046 3.20106 0.96 3.83333 0.96C4.46561 0.96 4.90639 0.96046 5.24814 0.990195C5.58301 1.01933 5.7734 1.07352 5.91667 1.15292C6.1447 1.27931 6.33405 1.46109 6.46571 1.68C6.54842 1.81754 6.60486 2.00031 6.63521 2.32179C6.66619 2.64986 6.66667 3.07301 6.66667 3.68V4.32C6.66667 4.5851 6.89053 4.8 7.16667 4.8C7.44281 4.8 7.66667 4.5851 7.66667 4.32V3.68V3.65711C7.66667 3.07839 7.66668 2.61164 7.63113 2.23514C7.5945 1.84707 7.51696 1.508 7.33173 1.2C7.11231 0.835154 6.79672 0.532184 6.41667 0.32154C6.09583 0.143715 5.74263 0.0692851 5.3384 0.0341138C4.94621 -1.03378e-05 4.46002 -5.64625e-06 3.85719 1.52086e-07L3.83333 1.52086e-07ZM10.1869 3.98028C9.99162 3.79282 9.67504 3.79282 9.47978 3.98028C9.28452 4.16773 9.28452 4.47165 9.47978 4.6591L11.2929 6.39969L3.83333 6.39969C3.55719 6.39969 3.33333 6.61459 3.33333 6.87969C3.33333 7.14478 3.55719 7.35969 3.83333 7.35969L11.2929 7.35969L9.47978 9.10028C9.28452 9.28773 9.28452 9.59165 9.47978 9.7791C9.67504 9.96655 9.99162 9.96655 10.1869 9.7791L12.8536 7.2191C13.0488 7.03165 13.0488 6.72773 12.8536 6.54028L10.1869 3.98028Z" fill="#20222F"/>
</svg>
