<svg width="16" height="16" viewBox="0 0 16 16" fill="none" xmlns="http://www.w3.org/2000/svg">
<path d="M11.3333 13.4401C11.5101 13.4401 11.6797 13.3726 11.8047 13.2526C11.9298 13.1326 12 12.9698 12 12.8001V9.37608C12 9.0836 12.2107 8.83592 12.4847 8.70984C13.052 8.45003 13.5055 8.00619 13.7651 7.45664C14.0247 6.9071 14.0738 6.28718 13.9036 5.70629C13.7335 5.1254 13.355 4.62088 12.8351 4.28177C12.3152 3.94266 11.6872 3.79076 11.062 3.85288C10.8045 3.27829 10.3772 2.78875 9.83304 2.44477C9.28884 2.1008 8.65156 1.91748 7.99999 1.91748C7.34843 1.91748 6.71115 2.1008 6.16695 2.44477C5.62274 2.78875 5.19549 3.27829 4.93799 3.85288C4.31305 3.79119 3.68549 3.94331 3.16595 4.2824C2.64641 4.6215 2.26827 5.1258 2.09818 5.70638C1.9281 6.28697 1.977 6.90656 2.23626 7.45592C2.49553 8.00528 2.9485 8.44912 3.51533 8.7092C3.78933 8.83592 3.99999 9.0836 3.99999 9.37544L3.99999 12.8001C3.99999 12.9698 4.07023 13.1326 4.19526 13.2526C4.32028 13.3726 4.48985 13.4401 4.66666 13.4401L11.3333 13.4401Z" stroke="black" stroke-width="1.2" stroke-linecap="round" stroke-linejoin="round"/>
<path d="M4 10.8799L12 10.8799" stroke="black" stroke-width="1.2" stroke-linecap="round" stroke-linejoin="round"/>
</svg>
