<svg width="25" height="24" viewBox="0 0 25 24" fill="none" xmlns="http://www.w3.org/2000/svg">
<path d="M16.6654 21V19C16.6654 17.9391 16.2264 16.9217 15.445 16.1716C14.6636 15.4214 13.6038 15 12.4987 15L6.2487 15C5.14363 15 4.08382 15.4214 3.30242 16.1716C2.52102 16.9217 2.08203 17.9391 2.08203 19L2.08203 21" stroke="#059B5A" stroke-width="1.5" stroke-linecap="round" stroke-linejoin="round"/>
<path d="M9.3737 11C11.6749 11 13.5404 9.20914 13.5404 7C13.5404 4.79086 11.6749 3 9.3737 3C7.07251 3 5.20703 4.79086 5.20703 7C5.20703 9.20914 7.07251 11 9.3737 11Z" stroke="#059B5A" stroke-width="1.5" stroke-linecap="round" stroke-linejoin="round"/>
<path d="M19.793 8V14" stroke="#059B5A" stroke-width="1.5" stroke-linecap="round" stroke-linejoin="round"/>
<path d="M22.918 11H16.668" stroke="#059B5A" stroke-width="1.5" stroke-linecap="round" stroke-linejoin="round"/>
</svg>
