<svg width="17" height="21" viewBox="0 0 17 21" fill="none" xmlns="http://www.w3.org/2000/svg">
<path fill-rule="evenodd" clip-rule="evenodd" d="M8.4984 0C4.69233 0 1.48188 2.83413 1.00979 6.61081L0.0208498 14.5224C-0.176818 16.1037 1.05621 17.5004 2.64985 17.5004H4.01085L4.0632 17.6182C4.84219 19.371 6.58033 20.5005 8.49837 20.5005C10.4164 20.5005 12.1546 19.371 12.9335 17.6182L12.9859 17.5004H14.347C15.9406 17.5004 17.1736 16.1037 16.976 14.5224L15.987 6.61081C15.5149 2.83413 12.3045 0 8.4984 0ZM12.5156 16.0004C12.5044 16.0002 12.4933 16.0002 12.4822 16.0004H4.51456C4.50345 16.0002 4.49231 16.0002 4.48115 16.0004H2.64985C1.95848 16.0004 1.42355 15.3945 1.5093 14.7084L2.49825 6.79687C2.8765 3.77085 5.44884 1.50004 8.4984 1.50004C11.548 1.50004 14.1203 3.77085 14.4986 6.79687L15.4875 14.7084C15.5733 15.3945 15.0383 16.0004 14.347 16.0004H12.5156ZM5.70351 17.5004H11.2932C10.679 18.427 9.63437 19.0005 8.49837 19.0005C7.36237 19.0005 6.31771 18.427 5.70351 17.5004Z" fill="#20222F"/>
</svg>
