<svg width="13" height="13" viewBox="0 0 13 13" fill="none" xmlns="http://www.w3.org/2000/svg">
<path fill-rule="evenodd" clip-rule="evenodd" d="M12.0431 0.653277C11.6277 0.237277 11.0978 0.0785569 10.47 0.0241569C9.86388 -0.0276831 9.09012 0.012637 8.12756 0.063197L7.50036 0.096477C6.92628 0.126557 6.52756 0.147677 6.15764 0.294877C5.78772 0.443357 5.48436 0.703197 5.04788 1.0776L2.3842 3.36112C1.6706 3.97296 1.09716 4.46448 0.70292 4.90992C0.29332 5.37136 0.02324 5.84176 0.00147996 6.41648C-0.02092 6.99248 0.21268 7.48144 0.58516 7.97296C0.9442 8.44784 1.4786 8.9816 2.14292 9.64592L3.05044 10.5534C3.71476 11.2178 4.24852 11.7522 4.7234 12.1112C5.21492 12.4837 5.70388 12.7173 6.27988 12.6949C6.85524 12.6731 7.325 12.4024 7.78644 11.9934C8.23188 11.5992 8.7234 11.0258 9.33524 10.3122L11.6188 7.64848C11.9932 7.212 12.253 6.90864 12.4015 6.53872C12.5487 6.1688 12.5698 5.77008 12.5999 5.19536L12.6332 4.56944C12.6837 3.60624 12.724 2.83248 12.6716 2.2264C12.6178 1.59856 12.4591 1.068 12.0437 0.652637L12.0431 0.653277ZM8.14036 1.02448C9.14964 0.970717 9.85556 0.934877 10.3874 0.980957C10.9058 1.02576 11.1752 1.14224 11.3647 1.33168C11.5541 1.52112 11.6712 1.79056 11.7154 2.30896C11.7615 2.84016 11.7256 3.54672 11.6725 4.556L11.645 5.07056C11.6098 5.74896 11.5912 5.97744 11.51 6.18224C11.428 6.3864 11.2828 6.56496 10.8412 7.08016L8.62996 9.65936C7.98932 10.4075 7.54004 10.9298 7.15028 11.2747C6.77012 11.6114 6.50516 11.7253 6.24276 11.7355C5.98036 11.7458 5.70708 11.6523 5.3026 11.3458C4.88724 11.0315 4.39956 10.5458 3.7026 9.8488L2.84756 8.99312C2.15124 8.2968 1.66484 7.80912 1.34996 7.39376C1.04404 6.98928 0.9506 6.71664 0.96084 6.4536C0.97108 6.1912 1.085 5.9256 1.42164 5.54608C1.76724 5.15568 2.28884 4.70768 3.037 4.0664L5.6162 1.8552C6.1314 1.4136 6.30996 1.26832 6.51412 1.1864C6.71892 1.10512 6.94804 1.08656 7.62644 1.05136L8.14036 1.02448Z" fill="#595959"/>
</svg>
