<svg width="12" height="15" viewBox="0 0 12 15" fill="none" xmlns="http://www.w3.org/2000/svg">
<path d="M5.95191 8.07366C5.25806 8.07446 4.58537 7.84434 4.0484 7.42249C3.51142 7.00064 3.14337 6.41315 3.00691 5.76006C2.99604 5.69126 3.00087 5.62102 3.02108 5.5542C3.04129 5.48738 3.07639 5.42557 3.12395 5.37306C3.17151 5.32055 3.23039 5.2786 3.29652 5.25011C3.36265 5.22162 3.43444 5.20727 3.50691 5.20806C3.62603 5.2064 3.74185 5.24562 3.83352 5.31866C3.92518 5.3917 3.98667 5.49376 4.00691 5.60646C4.10108 6.03794 4.34705 6.42517 4.70351 6.7031C5.05996 6.98104 5.50519 7.13275 5.96441 7.13275C6.42363 7.13275 6.86886 6.98104 7.22532 6.7031C7.58178 6.42517 7.82775 6.03794 7.92191 5.60646C7.94215 5.49376 8.00364 5.3917 8.09531 5.31866C8.18698 5.24562 8.3028 5.2064 8.42191 5.20806C8.49439 5.20727 8.56618 5.22162 8.63231 5.25011C8.69843 5.2786 8.75732 5.32055 8.80488 5.37306C8.85244 5.42557 8.88754 5.48738 8.90775 5.5542C8.92796 5.62102 8.93279 5.69126 8.92191 5.76006C8.78464 6.41721 8.41291 7.00783 7.87078 7.43015C7.32864 7.85247 6.65005 8.08004 5.95191 8.07366Z" fill="#20222F"/>
<path d="M10.4019 14.4002L1.50191 14.4002C1.29845 14.4004 1.09707 14.3609 0.910014 14.2841C0.722958 14.2072 0.554138 14.0947 0.413824 13.9533C0.273509 13.8118 0.164633 13.6445 0.0938196 13.4614C0.0230057 13.2782 -0.00826614 13.0832 0.00190683 12.8882L0.406907 4.61295C0.423669 4.24196 0.589073 3.89152 0.868582 3.63482C1.14809 3.37812 1.52009 3.235 1.90691 3.23535L9.99691 3.23535C10.3837 3.235 10.7557 3.37812 11.0352 3.63482C11.3147 3.89152 11.4801 4.24196 11.4969 4.61295L11.9019 12.8882C11.9121 13.0832 11.8808 13.2782 11.81 13.4614C11.7392 13.6445 11.6303 13.8118 11.49 13.9533C11.3497 14.0947 11.1809 14.2072 10.9938 14.2841C10.8067 14.3609 10.6054 14.4004 10.4019 14.4002ZM1.90691 4.20015C1.7743 4.20015 1.64712 4.25072 1.55335 4.34074C1.45959 4.43076 1.40691 4.55285 1.40691 4.68015L1.00191 12.9362C0.998516 13.0012 1.00894 13.0662 1.03254 13.1272C1.05615 13.1883 1.09244 13.244 1.13921 13.2912C1.18598 13.3383 1.24226 13.3759 1.30461 13.4015C1.36696 13.4271 1.43409 13.4402 1.50191 13.4402L10.4019 13.4402C10.4697 13.4402 10.5369 13.4271 10.5992 13.4015C10.6616 13.3759 10.7178 13.3383 10.7646 13.2912C10.8114 13.244 10.8477 13.1883 10.8713 13.1272C10.8949 13.0662 10.9053 13.0012 10.9019 12.9362L10.4969 4.66095C10.4969 4.53365 10.4442 4.41156 10.3505 4.32154C10.2567 4.23152 10.1295 4.18095 9.99691 4.18095L1.90691 4.20015Z" fill="#20222F"/>
<path d="M8.9519 3.72L7.9519 3.72L7.9519 2.88C7.9519 2.37078 7.74119 1.88242 7.36612 1.52235C6.99104 1.16228 6.48234 0.96 5.9519 0.96C5.42147 0.96 4.91276 1.16228 4.53769 1.52235C4.16262 1.88242 3.9519 2.37078 3.9519 2.88V3.72H2.9519V2.88C2.9519 2.11618 3.26797 1.38364 3.83058 0.843532C4.39319 0.303428 5.15625 0 5.9519 0C6.74755 0 7.51062 0.303428 8.07323 0.843532C8.63583 1.38364 8.9519 2.11618 8.9519 2.88V3.72Z" fill="#20222F"/>
</svg>
