<svg width="14" height="13" viewBox="0 0 14 13" fill="none" xmlns="http://www.w3.org/2000/svg">
<path fill-rule="evenodd" clip-rule="evenodd" d="M4.28336 1.40116e-06L4.30476 1.55496e-06L7.58098 1.55413e-06L7.60238 1.40275e-06C8.14427 -3.3295e-06 8.58135 -7.18082e-06 8.93529 0.0277541C9.29972 0.0563378 9.61981 0.116728 9.91595 0.261586C10.3864 0.491682 10.7688 0.858835 11.0085 1.31042C11.1594 1.59472 11.2223 1.90201 11.2521 2.25186C11.2541 2.27623 11.2561 2.30101 11.2579 2.32621C11.4517 2.33266 11.6204 2.3494 11.7744 2.39246C12.3763 2.56069 12.8469 3.0125 13.0222 3.59032C13.0958 3.833 13.0956 4.11351 13.0953 4.47634L13.0953 4.54402L13.0953 5.12459L13.0953 5.19227C13.0956 5.5551 13.0958 5.83561 13.0222 6.07829C12.8469 6.65611 12.3763 7.10792 11.7744 7.27615C11.6007 7.32469 11.4085 7.33978 11.1826 7.3444C11.1494 7.52091 11.1043 7.68662 11.0426 7.84676C10.6543 8.85365 9.82731 9.64753 8.77847 10.0203C8.4333 10.1429 8.06332 10.1971 7.62012 10.2234C7.18437 10.2492 6.64611 10.2492 5.95962 10.2492L5.94287 10.2492L5.92612 10.2492C5.23963 10.2492 4.70137 10.2492 4.26562 10.2234C3.82242 10.1971 3.45244 10.1429 3.10727 10.0203C2.05843 9.64753 1.23147 8.85364 0.843191 7.84676C0.715409 7.51539 0.658953 7.16022 0.631627 6.73474C0.60476 6.31642 0.604761 5.79968 0.604763 5.14064L0.604763 5.12459L0.604763 3.552L0.604763 3.53146L0.604763 3.53145C0.604758 3.01124 0.604754 2.59164 0.633672 2.25186C0.663447 1.90201 0.726353 1.59472 0.877247 1.31042C1.11693 0.858835 1.49938 0.491682 1.96979 0.261586C2.26593 0.116728 2.58603 0.0563378 2.95045 0.0277541C3.30439 -7.18204e-06 3.74147 -3.32942e-06 4.28336 1.40116e-06ZM11.2703 6.38102C11.3842 6.37652 11.4446 6.36846 11.4949 6.35442C11.7685 6.27795 11.9824 6.07258 12.062 5.80994C12.0902 5.71696 12.0953 5.58764 12.0953 5.12459L12.0953 4.54402C12.0953 4.08098 12.0902 3.95165 12.062 3.85867C11.9824 3.59603 11.7685 3.39066 11.4949 3.31419C11.4462 3.30059 11.388 3.2926 11.2809 3.28803C11.281 3.3666 11.281 3.4477 11.281 3.5314L11.281 3.53144L11.281 3.552L11.281 5.12458L11.281 5.14066L11.281 5.14068L11.281 5.1407C11.281 5.62525 11.281 6.03288 11.2703 6.38102ZM3.03188 0.984566C2.7293 1.0083 2.55546 1.05254 2.42378 1.11695C2.14153 1.25501 1.91206 1.4753 1.76825 1.74626C1.70116 1.87267 1.65507 2.03956 1.63035 2.33004C1.60515 2.62612 1.60476 3.00643 1.60476 3.552L1.60476 5.12459C1.60476 5.80313 1.60498 6.29034 1.62973 6.67567C1.65424 7.05723 1.70145 7.30719 1.78099 7.51348C2.06798 8.25769 2.67921 8.84448 3.45444 9.11999C3.66932 9.19635 3.9297 9.24167 4.32716 9.2652C4.72854 9.28896 5.23605 9.28917 5.94287 9.28917C6.64969 9.28917 7.1572 9.28896 7.55858 9.2652C7.95605 9.24167 8.21642 9.19635 8.4313 9.11999C9.20653 8.84448 9.81776 8.25769 10.1047 7.51348C10.1843 7.30719 10.2315 7.05723 10.256 6.67567C10.2808 6.29034 10.281 5.80313 10.281 5.12458L10.281 3.552C10.281 3.00643 10.2806 2.62612 10.2554 2.33004C10.2307 2.03956 10.1846 1.87267 10.1175 1.74626C9.97368 1.4753 9.74421 1.25501 9.46196 1.11695C9.33029 1.05254 9.15644 1.0083 8.85386 0.984566C8.54544 0.960375 8.14928 0.960002 7.58098 0.960001L4.30476 0.960001C3.73646 0.960001 3.3403 0.960375 3.03188 0.984566ZM-2.20223e-06 12.0915C-2.20113e-06 11.8264 0.223855 11.6115 0.499998 11.6115L11.3857 11.6115C11.6619 11.6115 11.8857 11.8264 11.8857 12.0915C11.8857 12.3566 11.6619 12.5715 11.3857 12.5715L0.499998 12.5715C0.223855 12.5715 -2.20332e-06 12.3566 -2.20223e-06 12.0915Z" fill="#20222F"/>
</svg>
