<svg width="14" height="14" viewBox="0 0 14 14" fill="none" xmlns="http://www.w3.org/2000/svg">
<path fill-rule="evenodd" clip-rule="evenodd" d="M9.85735 1.41749C10.4777 1.2438 10.9089 1.12359 11.238 1.06318C11.5706 1.00215 11.7137 1.02047 11.7892 1.04907C12.0175 1.13554 12.1978 1.3158 12.2843 1.54412C12.3129 1.61964 12.3312 1.76278 12.2701 2.09533C12.2097 2.42445 12.0895 2.85566 11.9158 3.476L10.2816 9.31231C10.0089 10.2861 9.81293 10.9845 9.62982 11.4769C9.43575 11.9986 9.30231 12.1479 9.23919 12.1864C8.99133 12.3374 8.68362 12.3519 8.42267 12.2248C8.3562 12.1925 8.20932 12.0564 7.96706 11.5552C7.73849 11.0822 7.47769 10.4054 7.11468 9.46149L6.64351 8.23638L6.62449 8.18688C6.54634 7.98329 6.48008 7.81069 6.39836 7.65802L8.08872 5.96766C8.28837 5.76801 8.28837 5.44431 8.08872 5.24466C7.88907 5.04501 7.56537 5.04501 7.36572 5.24466L5.67537 6.93501C5.5227 6.85328 5.35009 6.78702 5.1465 6.70886L5.097 6.68984L3.87178 6.2186C2.92794 5.85559 2.25106 5.59478 1.77813 5.3662C1.27691 5.12394 1.14086 4.97705 1.10849 4.91059C0.981405 4.64963 0.995903 4.34192 1.14697 4.09407C1.18544 4.03094 1.33469 3.8975 1.85648 3.70344C2.3488 3.52034 3.0472 3.32433 4.021 3.05167L9.85735 1.41749ZM12.1514 0.0928684C11.8079 -0.0372168 11.4362 -0.0127574 11.0534 0.0575019C10.6726 0.1274 10.1961 0.26084 9.60679 0.425842L9.58166 0.432878L3.74531 2.06706L3.71982 2.0742C2.77693 2.3382 2.03718 2.54533 1.50005 2.7451C0.987547 2.93571 0.514859 3.16654 0.273874 3.56193C-0.0584643 4.10721 -0.0903605 4.78416 0.189235 5.35828C0.391975 5.77457 0.840865 6.04883 1.33318 6.28678C1.84915 6.53617 2.56616 6.81194 3.48007 7.16344L3.50473 7.17293L4.72995 7.64417C5.08761 7.78173 5.18185 7.82198 5.25717 7.87554C5.3348 7.93074 5.40262 7.99856 5.45782 8.07619C5.51138 8.15151 5.55163 8.24575 5.68918 8.60341L6.16035 9.82853L6.16986 9.85324C6.52134 10.7671 6.79709 11.4841 7.04647 12.0001C7.28442 12.4924 7.55867 12.9413 7.97497 13.1441C8.54908 13.4237 9.22603 13.3918 9.77131 13.0595C10.1667 12.8185 10.3975 12.3458 10.5882 11.8333C10.7879 11.2962 10.9951 10.5564 11.2591 9.61358L11.2662 9.58801L12.9004 3.75169L12.9075 3.7266C13.0725 3.13732 13.2059 2.66076 13.2758 2.27992C13.3461 1.89712 13.3706 1.52546 13.2405 1.18199C13.0502 0.679679 12.6537 0.283107 12.1514 0.0928684Z" fill="#20222F"/>
</svg>
