<svg width="14" height="13" viewBox="0 0 14 13" fill="none" xmlns="http://www.w3.org/2000/svg">
<path fill-rule="evenodd" clip-rule="evenodd" d="M6.66668 0C5.72479 0 4.96125 0.733004 4.96125 1.63721V2.08508C4.87097 2.11798 4.782 2.15341 4.69443 2.19129L4.36446 1.87452C3.69845 1.23515 2.61863 1.23515 1.95262 1.87452C1.28661 2.51389 1.28661 3.55051 1.95262 4.18988L2.28259 4.50665C2.24314 4.59071 2.20623 4.67613 2.17196 4.76279H1.70543C0.763545 4.76279 0 5.49579 0 6.4C0 7.30421 0.763546 8.03721 1.70543 8.03721H2.17196C2.20623 8.12387 2.24314 8.20928 2.28259 8.29335L1.95262 8.61012C1.28661 9.24949 1.28661 10.2861 1.95262 10.9255L2.28151 10.6098L1.95262 10.9255C2.61863 11.5649 3.69845 11.5649 4.36446 10.9255L4.69443 10.6087C4.782 10.6466 4.87097 10.682 4.96125 10.7149L4.96125 11.1628C4.96125 12.067 5.72479 12.8 6.66668 12.8C7.60856 12.8 8.3721 12.067 8.3721 11.1628V10.7149C8.46238 10.682 8.55134 10.6466 8.63891 10.6087L8.96887 10.9255C9.63488 11.5649 10.7147 11.5649 11.3807 10.9255C12.0467 10.2861 12.0467 9.24949 11.3807 8.61012L11.0507 8.29335C11.0902 8.20929 11.1271 8.12387 11.1614 8.03721H11.6279C12.5698 8.03721 13.3333 7.30421 13.3333 6.4C13.3333 5.49579 12.5698 4.76279 11.6279 4.76279H11.1614C11.1271 4.67612 11.0902 4.59071 11.0507 4.50665L11.3807 4.18988C12.0467 3.55051 12.0467 2.51389 11.3807 1.87452L11.0518 2.19025L11.3807 1.87452C10.7147 1.23515 9.63488 1.23515 8.96887 1.87452L8.63891 2.19128C8.55134 2.15341 8.46238 2.11798 8.3721 2.08509V1.63721C8.3721 0.733003 7.60856 0 6.66668 0ZM5.89148 1.63721C5.89148 1.22621 6.23855 0.893023 6.66668 0.893023C7.0948 0.893023 7.44187 1.22621 7.44187 1.63721V2.40514C7.44187 2.60268 7.57708 2.77675 7.77431 2.8331C8.03181 2.90667 8.27815 3.00528 8.51031 3.12605C8.6913 3.2202 8.91523 3.18894 9.06079 3.0492L9.62665 2.50598C9.92938 2.21536 10.4202 2.21536 10.7229 2.50598C11.0257 2.7966 11.0257 3.26779 10.7229 3.55842L10.1571 4.10164C10.0115 4.24138 9.97896 4.45635 10.077 4.6301C10.2028 4.85297 10.3056 5.08947 10.3822 5.33667C10.4409 5.52601 10.6222 5.65581 10.828 5.65581L11.6279 5.65581C12.056 5.65581 12.4031 5.989 12.4031 6.4C12.4031 6.811 12.056 7.14419 11.6279 7.14419L10.828 7.14419C10.6222 7.14419 10.4409 7.27399 10.3822 7.46333C10.3056 7.71053 10.2028 7.94703 10.077 8.1699C9.97896 8.34365 10.0115 8.55862 10.1571 8.69836L10.7229 9.24158C11.0257 9.53221 11.0257 10.0034 10.7229 10.294C10.4202 10.5846 9.92938 10.5846 9.62665 10.294L9.06079 9.7508C8.91523 9.61106 8.6913 9.5798 8.51031 9.67395C8.27815 9.79472 8.03181 9.89333 7.77431 9.9669C7.57709 10.0232 7.44187 10.1973 7.44187 10.3949L7.44187 11.1628C7.44187 11.5738 7.0948 11.907 6.66668 11.907C6.23855 11.907 5.89148 11.5738 5.89148 11.1628L5.89148 10.3949C5.89148 10.1973 5.75627 10.0233 5.55904 9.9669C5.30154 9.89333 5.05518 9.79472 4.82302 9.67395C4.64203 9.5798 4.4181 9.61106 4.27254 9.7508L3.70668 10.294C3.40395 10.5846 2.91313 10.5846 2.61039 10.294C2.30766 10.0034 2.30766 9.5322 2.61039 9.24158L3.17625 8.69836C3.32182 8.55862 3.35438 8.34365 3.2563 8.1699C3.1305 7.94702 3.02778 7.71053 2.95114 7.46333C2.89245 7.27399 2.71113 7.14419 2.50535 7.14419H1.70543C1.2773 7.14419 0.930233 6.811 0.930233 6.4C0.930233 5.989 1.2773 5.65581 1.70543 5.65581H2.50535C2.71113 5.65581 2.89245 5.52601 2.95114 5.33667C3.02778 5.08947 3.1305 4.85297 3.2563 4.6301C3.35438 4.45635 3.32182 4.24138 3.17625 4.10164L2.6104 3.55842C2.30766 3.26779 2.30766 2.7966 2.61039 2.50598C2.91313 2.21536 3.40395 2.21536 3.70668 2.50598L4.27254 3.0492C4.4181 3.18894 4.64203 3.2202 4.82302 3.12605C5.05518 3.00528 5.30154 2.90667 5.55904 2.8331C5.75627 2.77675 5.89148 2.60268 5.89148 2.40513V1.63721ZM5.27132 6.4C5.27132 5.66019 5.89604 5.06046 6.66667 5.06046C7.4373 5.06046 8.06202 5.66019 8.06202 6.4C8.06202 7.1398 7.4373 7.73953 6.66667 7.73953C5.89604 7.73953 5.27132 7.1398 5.27132 6.4ZM6.66667 4.16744C5.38228 4.16744 4.34109 5.16699 4.34109 6.4C4.34109 7.63301 5.38228 8.63256 6.66667 8.63256C7.95105 8.63256 8.99225 7.63301 8.99225 6.4C8.99225 5.16699 7.95105 4.16744 6.66667 4.16744Z" fill="#20222F"/>
</svg>
