<svg width="24" height="24" viewBox="0 0 24 24" fill="none" xmlns="http://www.w3.org/2000/svg">
<path d="M15 21V16C15 15.7348 14.8946 15.4804 14.7071 15.2929C14.5196 15.1054 14.2652 15 14 15H10C9.73478 15 9.48043 15.1054 9.29289 15.2929C9.10536 15.4804 9 15.7348 9 16V21" stroke="white" stroke-width="1.2" stroke-linecap="round" stroke-linejoin="round"/>
<path d="M17.774 10.31C17.5655 10.1104 17.2881 9.99904 16.9995 9.99904C16.7109 9.99904 16.4335 10.1104 16.225 10.31C15.76 10.7535 15.1421 11.001 14.4995 11.001C13.8569 11.001 13.239 10.7535 12.774 10.31C12.5656 10.1107 12.2884 9.99952 12 9.99952C11.7117 9.99952 11.4344 10.1107 11.226 10.31C10.761 10.7538 10.1428 11.0014 9.50001 11.0014C8.85718 11.0014 8.23906 10.7538 7.77401 10.31C7.56555 10.1104 7.2881 9.99904 6.99951 9.99904C6.71093 9.99904 6.43348 10.1104 6.22501 10.31C5.77586 10.7386 5.18329 10.9848 4.56264 11.0005C3.94199 11.0163 3.33768 10.8006 2.86732 10.3954C2.39696 9.99015 2.09421 9.42439 2.018 8.80824C1.94179 8.19209 2.09757 7.56962 2.45501 7.062L5.34401 2.878C5.52732 2.60751 5.77411 2.38605 6.06279 2.233C6.35148 2.07994 6.67326 1.99994 7.00001 2H17C17.3258 1.99988 17.6467 2.07934 17.9348 2.23149C18.2229 2.38364 18.4694 2.60386 18.653 2.873L21.548 7.065C21.9055 7.57303 22.0611 8.19597 21.9844 8.81244C21.9077 9.42891 21.6043 9.99475 21.1332 10.3997C20.6621 10.8046 20.0571 11.0197 19.4361 11.0029C18.8151 10.9861 18.2226 10.7388 17.774 10.309" stroke="white" stroke-width="1.2" stroke-linecap="round" stroke-linejoin="round"/>
<path d="M4 10.95V19C4 19.5304 4.21071 20.0391 4.58579 20.4142C4.96086 20.7892 5.46957 21 6 21H18C18.5304 21 19.0391 20.7892 19.4142 20.4142C19.7893 20.0391 20 19.5304 20 19V10.95" stroke="white" stroke-width="1.2" stroke-linecap="round" stroke-linejoin="round"/>
</svg>
