<svg width="14" height="14" viewBox="0 0 14 14" fill="none" xmlns="http://www.w3.org/2000/svg">
<g clip-path="url(#clip0_2710_78492)">
<path d="M14 7C14 3.13401 10.866 0 7 0C3.13401 0 0 3.13401 0 7C0 10.866 3.13401 14 7 14C10.866 14 14 10.866 14 7Z" fill="#0DC143"/>
<path d="M10.1356 3.85352C9.38514 3.08098 8.34777 2.66162 7.28829 2.66162C5.03694 2.66162 3.22704 4.49361 3.24911 6.72288C3.24911 7.42918 3.44777 8.11343 3.77884 8.73144L3.20496 10.8283L5.34596 10.2765C5.9419 10.6076 6.60407 10.7621 7.26621 10.7621C9.49551 10.7621 11.3054 8.93009 11.3054 6.7008C11.3054 5.61927 10.8861 4.60398 10.1356 3.85352ZM7.28829 10.0778C6.69236 10.0778 6.09639 9.92333 5.58875 9.61431L5.4563 9.54811L4.17615 9.87918L4.50722 8.62107L4.41893 8.48865C3.44777 6.92153 3.91126 4.84676 5.50046 3.8756C7.08964 2.90441 9.14236 3.36792 10.1135 4.95713C11.0847 6.5463 10.6212 8.59902 9.03199 9.57018C8.52434 9.90126 7.9063 10.0778 7.28829 10.0778ZM9.23064 7.62783L8.98786 7.51746C8.98786 7.51746 8.63468 7.36297 8.41398 7.2526C8.3919 7.2526 8.36982 7.23055 8.34777 7.23055C8.28153 7.23055 8.2374 7.2526 8.19324 7.27468C8.19324 7.27468 8.17119 7.29676 7.86217 7.64991C7.84009 7.69407 7.79596 7.71612 7.75181 7.71612H7.72973C7.70768 7.71612 7.66352 7.69407 7.64144 7.67199L7.5311 7.62783C7.28829 7.51746 7.06759 7.38505 6.89101 7.20847C6.84685 7.16431 6.78064 7.12018 6.73649 7.07603C6.58199 6.92153 6.42749 6.74495 6.31713 6.5463L6.29505 6.50217C6.27297 6.48009 6.27297 6.45801 6.25092 6.41388C6.25092 6.36973 6.25092 6.3256 6.27297 6.30352C6.27297 6.30352 6.36126 6.19315 6.42749 6.12694C6.47162 6.08278 6.4937 6.01658 6.53786 5.97245C6.58199 5.90621 6.60407 5.81792 6.58199 5.75171C6.55991 5.64135 6.29505 5.04541 6.22884 4.91297C6.18468 4.84676 6.14055 4.82468 6.07434 4.8026H6.00811C5.96398 4.8026 5.89777 4.8026 5.83153 4.8026C5.7874 4.8026 5.74324 4.82468 5.69911 4.82468L5.67704 4.84676C5.63288 4.86884 5.58875 4.91297 5.54459 4.93505C5.50046 4.97918 5.47838 5.02333 5.43425 5.06746C5.27973 5.26612 5.19144 5.50893 5.19144 5.75171C5.19144 5.92829 5.2356 6.10486 5.30181 6.25936L5.32389 6.3256C5.52254 6.74495 5.7874 7.12018 6.14055 7.45125L6.22884 7.53954C6.29505 7.60578 6.36126 7.64991 6.40541 7.71612C6.86893 8.11343 7.39866 8.40037 7.99459 8.55486C8.06083 8.57694 8.14912 8.57694 8.21532 8.59902C8.28153 8.59902 8.36982 8.59902 8.43606 8.59902C8.54639 8.59902 8.67884 8.55486 8.76713 8.51073C8.83334 8.46658 8.87749 8.46658 8.92162 8.42245L8.96578 8.37829C9.00991 8.33413 9.05407 8.31208 9.0982 8.26792C9.14236 8.22379 9.18649 8.17963 9.20857 8.1355C9.25272 8.04722 9.27477 7.93685 9.29685 7.82648C9.29685 7.78235 9.29685 7.71612 9.29685 7.67199C9.29685 7.67199 9.27477 7.64991 9.23064 7.62783Z" fill="white"/>
</g>
<defs>
<clipPath id="clip0_2710_78492">
<rect width="14" height="14" fill="white"/>
</clipPath>
</defs>
</svg>
